%TF.GenerationSoftware,KiCad,Pcbnew,6.0.5+dfsg-1*%
%TF.CreationDate,2022-08-14T13:17:23-07:00*%
%TF.ProjectId,breadboard_buttons,62726561-6462-46f6-9172-645f62757474,rev?*%
%TF.SameCoordinates,Original*%
%TF.FileFunction,Copper,L1,Top*%
%TF.FilePolarity,Positive*%
%FSLAX46Y46*%
G04 Gerber Fmt 4.6, Leading zero omitted, Abs format (unit mm)*
G04 Created by KiCad (PCBNEW 6.0.5+dfsg-1) date 2022-08-14 13:17:23*
%MOMM*%
%LPD*%
G01*
G04 APERTURE LIST*
G04 Aperture macros list*
%AMRoundRect*
0 Rectangle with rounded corners*
0 $1 Rounding radius*
0 $2 $3 $4 $5 $6 $7 $8 $9 X,Y pos of 4 corners*
0 Add a 4 corners polygon primitive as box body*
4,1,4,$2,$3,$4,$5,$6,$7,$8,$9,$2,$3,0*
0 Add four circle primitives for the rounded corners*
1,1,$1+$1,$2,$3*
1,1,$1+$1,$4,$5*
1,1,$1+$1,$6,$7*
1,1,$1+$1,$8,$9*
0 Add four rect primitives between the rounded corners*
20,1,$1+$1,$2,$3,$4,$5,0*
20,1,$1+$1,$4,$5,$6,$7,0*
20,1,$1+$1,$6,$7,$8,$9,0*
20,1,$1+$1,$8,$9,$2,$3,0*%
G04 Aperture macros list end*
%TA.AperFunction,ComponentPad*%
%ADD10O,1.700000X1.700000*%
%TD*%
%TA.AperFunction,ComponentPad*%
%ADD11R,1.700000X1.700000*%
%TD*%
%TA.AperFunction,SMDPad,CuDef*%
%ADD12RoundRect,0.500000X-0.500000X-0.500000X0.500000X-0.500000X0.500000X0.500000X-0.500000X0.500000X0*%
%TD*%
%TA.AperFunction,Conductor*%
%ADD13C,1.000000*%
%TD*%
G04 APERTURE END LIST*
D10*
%TO.P,J2,4,Pin_4*%
%TO.N,Net-(J2-Pad4)*%
X152400000Y-93980000D03*
%TO.P,J2,3,Pin_3*%
%TO.N,Net-(J2-Pad3)*%
X149860000Y-93980000D03*
%TO.P,J2,2,Pin_2*%
%TO.N,Net-(J2-Pad2)*%
X147320000Y-93980000D03*
D11*
%TO.P,J2,1,Pin_1*%
%TO.N,Net-(J2-Pad1)*%
X144780000Y-93980000D03*
%TD*%
%TO.P,J1,1,Pin_1*%
%TO.N,Net-(J1-Pad1)*%
X152380000Y-109220000D03*
D10*
%TO.P,J1,2,Pin_2*%
%TO.N,Net-(J1-Pad2)*%
X149840000Y-109220000D03*
%TO.P,J1,3,Pin_3*%
%TO.N,Net-(J1-Pad3)*%
X147300000Y-109220000D03*
%TO.P,J1,4,Pin_4*%
%TO.N,Net-(J1-Pad4)*%
X144760000Y-109220000D03*
%TD*%
D12*
%TO.P,SW4,1,1*%
%TO.N,Net-(J1-Pad4)*%
X140970000Y-105790000D03*
%TO.P,SW4,2,2*%
%TO.N,Net-(J2-Pad1)*%
X140970000Y-97790000D03*
%TD*%
%TO.P,SW3,2,2*%
%TO.N,Net-(J2-Pad2)*%
X146110000Y-97790000D03*
%TO.P,SW3,1,1*%
%TO.N,Net-(J1-Pad3)*%
X146110000Y-105790000D03*
%TD*%
%TO.P,SW2,2,2*%
%TO.N,Net-(J2-Pad3)*%
X151130000Y-97790000D03*
%TO.P,SW2,1,1*%
%TO.N,Net-(J1-Pad2)*%
X151130000Y-105790000D03*
%TD*%
%TO.P,SW1,1,1*%
%TO.N,Net-(J1-Pad1)*%
X156210000Y-105790000D03*
%TO.P,SW1,2,2*%
%TO.N,Net-(J2-Pad4)*%
X156210000Y-97790000D03*
%TD*%
D13*
%TO.N,Net-(J1-Pad3)*%
X147300000Y-109220000D02*
X147300000Y-106980000D01*
X147300000Y-106980000D02*
X146110000Y-105790000D01*
%TO.N,Net-(J1-Pad2)*%
X149840000Y-109220000D02*
X149840000Y-107080000D01*
X149840000Y-107080000D02*
X151130000Y-105790000D01*
%TO.N,Net-(J1-Pad1)*%
X152380000Y-109220000D02*
X152780000Y-109220000D01*
X152780000Y-109220000D02*
X156210000Y-105790000D01*
%TO.N,Net-(J1-Pad4)*%
X144760000Y-109220000D02*
X144400000Y-109220000D01*
X144400000Y-109220000D02*
X140970000Y-105790000D01*
%TO.N,Net-(J2-Pad4)*%
X152400000Y-93980000D02*
X156210000Y-97790000D01*
%TO.N,Net-(J2-Pad3)*%
X149860000Y-93980000D02*
X149860000Y-96520000D01*
X149860000Y-96520000D02*
X151130000Y-97790000D01*
%TO.N,Net-(J2-Pad2)*%
X146110000Y-97790000D02*
X147320000Y-96580000D01*
X147320000Y-96580000D02*
X147320000Y-93980000D01*
%TO.N,Net-(J2-Pad1)*%
X140970000Y-97790000D02*
X144780000Y-93980000D01*
%TD*%
M02*
